<svg xmlns="http://www.w3.org/2000/svg" viewBox="0 0 240 240" width="240" height="240" role="img" aria-label="untangle"><title>untangle</title><path d="M30 150C35 141 47.7 107.7 60 96C72.3 84.3 93 76 104 80C115 84 127.3 108.3 126 120C124.7 131.7 105.3 150.3 96 150C86.7 149.7 69.7 130 70 118C70.3 106 86.3 83.7 98 78C109.7 72.3 131.3 75.7 140 84C148.7 92.3 153.7 115.3 150 128C146.3 140.7 127.7 159.3 118 160C108.3 160.7 91.7 142.3 92 132C92.3 121.7 109.3 101.7 120 98C130.7 94.3 149.3 101.3 156 110C162.7 118.7 156.7 141.7 160 150C163.3 158.3 170 159 176 160C182 161 192.7 156.7 196 156" fill="none" stroke="#1F2A1D" stroke-width="3.5" stroke-linecap="round" stroke-linejoin="round" /><path d="M225.4 156.6C223.9 160.5 221.2 163.8 218.5 166.3C215.7 168.8 212.3 171.3 209 171.7C205.7 172 201 171 198.8 168.3C196.6 165.7 195.8 160 195.9 155.9C196 151.7 197.3 147.1 199.3 143.6C201.2 140.1 204.6 136.1 207.7 135C210.7 133.9 214.2 135.7 217.5 137C220.7 138.2 225.7 139.4 227.1 142.7C228.4 145.9 226.8 152.6 225.4 156.6Z" fill="#9DD99D"/><path d="M222.2 153.5C221.1 157.4 218.5 161 215.8 163.9C213.1 166.9 208.9 171.2 205.8 171.1C202.7 171 199.1 166.7 197.2 163.6C195.3 160.5 194.5 156.7 194.1 152.6C193.7 148.6 193.1 142.8 194.9 139.5C196.6 136.1 201.4 134 204.8 132.7C208.2 131.5 212.3 130.7 215.2 132.1C218.1 133.5 220.9 137.4 222.1 140.9C223.3 144.5 223.2 149.7 222.2 153.5Z" fill="none" stroke="#1F2A1D" stroke-width="3.5" stroke-linecap="round" stroke-linejoin="round" /></svg>
