<svg xmlns="http://www.w3.org/2000/svg" viewBox="0 0 120 120" width="120" height="120" role="img" aria-label="burst"><title>burst</title><path d="M86.2 60.3C89.4 60.2 102.1 59.8 105.2 59.7" fill="none" stroke="#1F2A1D" stroke-width="3.5" stroke-linecap="round" stroke-linejoin="round" /><path d="M80.8 75.2C84.3 77.7 98.1 87.6 101.5 90" fill="none" stroke="#1F2A1D" stroke-width="3.5" stroke-linecap="round" stroke-linejoin="round" /><path d="M68 84.2C69 87.4 72.8 100.4 73.7 103.7" fill="none" stroke="#1F2A1D" stroke-width="3.5" stroke-linecap="round" stroke-linejoin="round" /><path d="M52.5 85.5C51.2 89.4 45.9 104.9 44.6 108.8" fill="none" stroke="#1F2A1D" stroke-width="3.5" stroke-linecap="round" stroke-linejoin="round" /><path d="M39.2 74.9C36.4 77 25.3 85.1 22.5 87.1" fill="none" stroke="#1F2A1D" stroke-width="3.5" stroke-linecap="round" stroke-linejoin="round" /><path d="M33.5 60.6C29.4 60.6 12.8 60.3 8.6 60.2" fill="none" stroke="#1F2A1D" stroke-width="3.5" stroke-linecap="round" stroke-linejoin="round" /><path d="M38.2 44.6C35.7 42.7 25.9 35.2 23.4 33.4" fill="none" stroke="#1F2A1D" stroke-width="3.5" stroke-linecap="round" stroke-linejoin="round" /><path d="M51.2 35.6C50 31.4 44.9 14.7 43.6 10.5" fill="none" stroke="#1F2A1D" stroke-width="3.5" stroke-linecap="round" stroke-linejoin="round" /><path d="M68.8 35.8C69.7 32.4 73.3 19 74.2 15.7" fill="none" stroke="#1F2A1D" stroke-width="3.5" stroke-linecap="round" stroke-linejoin="round" /><path d="M81.7 44.2C85 41.8 98.2 32.2 101.5 29.8" fill="none" stroke="#1F2A1D" stroke-width="3.5" stroke-linecap="round" stroke-linejoin="round" /></svg>
